<mxfile host="app.diagrams.net" modified="2021-05-11T10:59:14.353Z" agent="5.0 (Windows NT 10.0; Win64; x64) AppleWebKit/537.36 (KHTML, like Gecko) Chrome/90.0.4430.93 Safari/537.36 Edg/90.0.818.56" etag="EXcjzrFOV9vpaXbSRHTz" version="14.6.11" type="github">
  <diagram id="aw4TtTJ2CJ5YBK6EC5cA" name="第 1 页">
    <mxGraphModel dx="670" dy="406" grid="0" gridSize="10" guides="1" tooltips="1" connect="1" arrows="1" fold="1" page="1" pageScale="1" pageWidth="1169" pageHeight="827" background="#000000" math="0" shadow="0">
      <root>
        <mxCell id="0" />
        <mxCell id="1" parent="0" />
        <mxCell id="WMnvuN_LtXJiwmp-fKAC-5" value="" style="shape=cube;whiteSpace=wrap;html=1;boundedLbl=1;backgroundOutline=1;darkOpacity=0.05;darkOpacity2=0.1;size=93;flipH=1;fillColor=none;strokeColor=#FFFFFF;" parent="1" vertex="1">
          <mxGeometry x="774" y="224.56" width="120" height="235" as="geometry" />
        </mxCell>
        <mxCell id="WMnvuN_LtXJiwmp-fKAC-67" value="" style="shape=cube;whiteSpace=wrap;html=1;boundedLbl=1;backgroundOutline=1;darkOpacity=0.05;darkOpacity2=0.1;size=93;flipH=1;fillColor=#a20025;opacity=50;fontColor=#ffffff;strokeColor=#FFFFFF;" parent="1" vertex="1">
          <mxGeometry x="801" y="224.56" width="105" height="235" as="geometry" />
        </mxCell>
        <mxCell id="WMnvuN_LtXJiwmp-fKAC-4" value="" style="shape=cube;whiteSpace=wrap;html=1;boundedLbl=1;backgroundOutline=1;darkOpacity=0.05;darkOpacity2=0.1;size=106;flipH=1;fillColor=none;strokeColor=#FFFFFF;" parent="1" vertex="1">
          <mxGeometry x="989" y="173" width="120" height="320" as="geometry" />
        </mxCell>
        <mxCell id="WMnvuN_LtXJiwmp-fKAC-7" value="" style="edgeStyle=orthogonalEdgeStyle;rounded=0;orthogonalLoop=1;jettySize=auto;html=1;" parent="1" source="WMnvuN_LtXJiwmp-fKAC-5" target="WMnvuN_LtXJiwmp-fKAC-6" edge="1">
          <mxGeometry relative="1" as="geometry" />
        </mxCell>
        <mxCell id="WMnvuN_LtXJiwmp-fKAC-6" value="" style="shape=cube;whiteSpace=wrap;html=1;boundedLbl=1;backgroundOutline=1;darkOpacity=0.05;darkOpacity2=0.1;size=67;flipH=1;fillColor=none;strokeColor=#FFFFFF;" parent="1" vertex="1">
          <mxGeometry x="558" y="263.25" width="120" height="173" as="geometry" />
        </mxCell>
        <mxCell id="WMnvuN_LtXJiwmp-fKAC-8" value="" style="shape=cube;whiteSpace=wrap;html=1;boundedLbl=1;backgroundOutline=1;darkOpacity=0.05;darkOpacity2=0.1;size=40;flipH=1;fillColor=none;strokeColor=#FFFFFF;" parent="1" vertex="1">
          <mxGeometry x="345" y="298.06" width="120" height="120" as="geometry" />
        </mxCell>
        <mxCell id="WMnvuN_LtXJiwmp-fKAC-28" value="" style="edgeStyle=orthogonalEdgeStyle;rounded=0;orthogonalLoop=1;jettySize=auto;html=1;" parent="1" target="WMnvuN_LtXJiwmp-fKAC-27" edge="1">
          <mxGeometry relative="1" as="geometry">
            <mxPoint x="215.47058823529414" y="325.75" as="sourcePoint" />
          </mxGeometry>
        </mxCell>
        <mxCell id="WMnvuN_LtXJiwmp-fKAC-9" value="" style="shape=cube;whiteSpace=wrap;html=1;boundedLbl=1;backgroundOutline=1;darkOpacity=0.05;darkOpacity2=0.1;size=14;flipH=1;fillColor=none;strokeColor=#FFFFFF;" parent="1" vertex="1">
          <mxGeometry x="145" y="325.75" width="131" height="62.5" as="geometry" />
        </mxCell>
        <mxCell id="WMnvuN_LtXJiwmp-fKAC-15" value="&lt;font color=&quot;#ffffff&quot; style=&quot;font-size: 24px&quot;&gt;64&lt;/font&gt;" style="text;html=1;align=center;verticalAlign=middle;resizable=0;points=[];autosize=1;" parent="1" vertex="1">
          <mxGeometry x="1081" y="434" width="36" height="22" as="geometry" />
        </mxCell>
        <mxCell id="WMnvuN_LtXJiwmp-fKAC-16" value="&lt;font color=&quot;#ffffff&quot; style=&quot;font-size: 24px&quot;&gt;64&lt;/font&gt;" style="text;html=1;align=center;verticalAlign=middle;resizable=0;points=[];autosize=1;" parent="1" vertex="1">
          <mxGeometry x="1133" y="251.75" width="36" height="22" as="geometry" />
        </mxCell>
        <mxCell id="WMnvuN_LtXJiwmp-fKAC-17" value="&lt;font color=&quot;#ffffff&quot; style=&quot;font-size: 24px&quot;&gt;1&lt;/font&gt;" style="text;html=1;align=center;verticalAlign=middle;resizable=0;points=[];autosize=1;" parent="1" vertex="1">
          <mxGeometry x="1090" y="146" width="24" height="22" as="geometry" />
        </mxCell>
        <mxCell id="WMnvuN_LtXJiwmp-fKAC-18" value="&lt;font color=&quot;#ffffff&quot; style=&quot;font-size: 24px&quot;&gt;32&lt;/font&gt;" style="text;html=1;align=center;verticalAlign=middle;resizable=0;points=[];autosize=1;" parent="1" vertex="1">
          <mxGeometry x="850" y="418.06" width="36" height="22" as="geometry" />
        </mxCell>
        <mxCell id="WMnvuN_LtXJiwmp-fKAC-19" value="&lt;font color=&quot;#ffffff&quot; style=&quot;font-size: 24px&quot;&gt;32&lt;/font&gt;" style="text;html=1;align=center;verticalAlign=middle;resizable=0;points=[];autosize=1;" parent="1" vertex="1">
          <mxGeometry x="914" y="285.06" width="36" height="22" as="geometry" />
        </mxCell>
        <mxCell id="WMnvuN_LtXJiwmp-fKAC-20" value="&lt;font color=&quot;#ffffff&quot; style=&quot;font-size: 24px&quot;&gt;64&lt;/font&gt;" style="text;html=1;align=center;verticalAlign=middle;resizable=0;points=[];autosize=1;" parent="1" vertex="1">
          <mxGeometry x="864" y="190.06" width="36" height="22" as="geometry" />
        </mxCell>
        <mxCell id="WMnvuN_LtXJiwmp-fKAC-21" value="&lt;font color=&quot;#ffffff&quot; style=&quot;font-size: 24px&quot;&gt;16&lt;/font&gt;" style="text;html=1;align=center;verticalAlign=middle;resizable=0;points=[];autosize=1;" parent="1" vertex="1">
          <mxGeometry x="666" y="403.75" width="36" height="22" as="geometry" />
        </mxCell>
        <mxCell id="WMnvuN_LtXJiwmp-fKAC-22" value="&lt;span style=&quot;color: rgb(255 , 255 , 255) ; font-size: 24px&quot;&gt;16&lt;/span&gt;" style="text;html=1;align=center;verticalAlign=middle;resizable=0;points=[];autosize=1;" parent="1" vertex="1">
          <mxGeometry x="704" y="308.19" width="36" height="22" as="geometry" />
        </mxCell>
        <mxCell id="WMnvuN_LtXJiwmp-fKAC-23" value="&lt;span style=&quot;color: rgb(255 , 255 , 255) ; font-size: 24px&quot;&gt;128&lt;/span&gt;" style="text;html=1;align=center;verticalAlign=middle;resizable=0;points=[];autosize=1;" parent="1" vertex="1">
          <mxGeometry x="628" y="229.75" width="50" height="22" as="geometry" />
        </mxCell>
        <mxCell id="WMnvuN_LtXJiwmp-fKAC-24" value="&lt;span style=&quot;color: rgb(255 , 255 , 255) ; font-size: 24px&quot;&gt;8&lt;/span&gt;" style="text;html=1;align=center;verticalAlign=middle;resizable=0;points=[];autosize=1;" parent="1" vertex="1">
          <mxGeometry x="465" y="403.06" width="24" height="22" as="geometry" />
        </mxCell>
        <mxCell id="WMnvuN_LtXJiwmp-fKAC-25" value="&lt;span style=&quot;color: rgb(255 , 255 , 255) ; font-size: 24px&quot;&gt;8&lt;/span&gt;" style="text;html=1;align=center;verticalAlign=middle;resizable=0;points=[];autosize=1;" parent="1" vertex="1">
          <mxGeometry x="500" y="325.81" width="24" height="22" as="geometry" />
        </mxCell>
        <mxCell id="WMnvuN_LtXJiwmp-fKAC-26" value="&lt;span style=&quot;color: rgb(255 , 255 , 255) ; font-size: 24px&quot;&gt;256&lt;/span&gt;" style="text;html=1;align=center;verticalAlign=middle;resizable=0;points=[];autosize=1;" parent="1" vertex="1">
          <mxGeometry x="398" y="269.06" width="50" height="22" as="geometry" />
        </mxCell>
        <mxCell id="WMnvuN_LtXJiwmp-fKAC-27" value="&lt;span style=&quot;color: rgb(255 , 255 , 255) ; font-size: 24px&quot;&gt;512&lt;/span&gt;" style="text;html=1;align=center;verticalAlign=middle;resizable=0;points=[];autosize=1;" parent="1" vertex="1">
          <mxGeometry x="190.5" y="297" width="50" height="22" as="geometry" />
        </mxCell>
        <mxCell id="WMnvuN_LtXJiwmp-fKAC-29" value="&lt;span style=&quot;color: rgb(255 , 255 , 255) ; font-size: 24px&quot;&gt;4&lt;/span&gt;" style="text;html=1;align=center;verticalAlign=middle;resizable=0;points=[];autosize=1;" parent="1" vertex="1">
          <mxGeometry x="283" y="381" width="24" height="22" as="geometry" />
        </mxCell>
        <mxCell id="WMnvuN_LtXJiwmp-fKAC-30" value="&lt;span style=&quot;color: rgb(255 , 255 , 255) ; font-size: 24px&quot;&gt;4&lt;/span&gt;" style="text;html=1;align=center;verticalAlign=middle;resizable=0;points=[];autosize=1;" parent="1" vertex="1">
          <mxGeometry x="297" y="338.25" width="24" height="22" as="geometry" />
        </mxCell>
        <mxCell id="WMnvuN_LtXJiwmp-fKAC-32" value="&lt;span style=&quot;color: rgb(255 , 255 , 255) ; font-size: 24px&quot;&gt;100&lt;/span&gt;" style="text;html=1;align=center;verticalAlign=middle;resizable=0;points=[];autosize=1;" parent="1" vertex="1">
          <mxGeometry y="351.97" width="50" height="22" as="geometry" />
        </mxCell>
        <mxCell id="WMnvuN_LtXJiwmp-fKAC-41" style="edgeStyle=orthogonalEdgeStyle;rounded=0;orthogonalLoop=1;jettySize=auto;html=1;exitX=0;exitY=0;exitDx=10;exitDy=47;exitPerimeter=0;fontColor=#FFFFFF;" parent="1" source="WMnvuN_LtXJiwmp-fKAC-34" edge="1">
          <mxGeometry relative="1" as="geometry">
            <mxPoint x="834.4286237444198" y="384.7743990652903" as="targetPoint" />
          </mxGeometry>
        </mxCell>
        <mxCell id="WMnvuN_LtXJiwmp-fKAC-34" value="" style="shape=cube;whiteSpace=wrap;html=1;boundedLbl=1;backgroundOutline=1;darkOpacity=0.05;darkOpacity2=0.1;comic=0;fillColor=#008a00;flipH=1;opacity=50;fontColor=#ffffff;strokeColor=#FFFFFF;" parent="1" vertex="1">
          <mxGeometry x="818" y="332.06" width="39" height="50" as="geometry" />
        </mxCell>
        <mxCell id="WMnvuN_LtXJiwmp-fKAC-37" value="4x4 Stride 2&lt;br&gt;" style="text;html=1;strokeColor=none;fillColor=none;align=center;verticalAlign=middle;whiteSpace=wrap;rounded=0;comic=0;fontColor=#FFFFFF;" parent="1" vertex="1">
          <mxGeometry x="788" y="385.06" width="79" height="20" as="geometry" />
        </mxCell>
        <mxCell id="WMnvuN_LtXJiwmp-fKAC-46" style="edgeStyle=orthogonalEdgeStyle;rounded=0;orthogonalLoop=1;jettySize=auto;html=1;exitX=0;exitY=0;exitDx=10;exitDy=47;exitPerimeter=0;fontColor=#FFFFFF;" parent="1" source="WMnvuN_LtXJiwmp-fKAC-47" edge="1">
          <mxGeometry relative="1" as="geometry">
            <mxPoint x="1044.4286237444198" y="375.7143990652903" as="targetPoint" />
          </mxGeometry>
        </mxCell>
        <mxCell id="WMnvuN_LtXJiwmp-fKAC-47" value="" style="shape=cube;whiteSpace=wrap;html=1;boundedLbl=1;backgroundOutline=1;darkOpacity=0.05;darkOpacity2=0.1;comic=0;fillColor=#008a00;flipH=1;opacity=50;fontColor=#ffffff;strokeColor=#FFFFFF;" parent="1" vertex="1">
          <mxGeometry x="1030" y="321" width="28" height="52" as="geometry" />
        </mxCell>
        <mxCell id="WMnvuN_LtXJiwmp-fKAC-48" value="4x4 Stride 2&lt;br&gt;" style="text;html=1;strokeColor=none;fillColor=none;align=center;verticalAlign=middle;whiteSpace=wrap;rounded=0;comic=0;fontColor=#FFFFFF;" parent="1" vertex="1">
          <mxGeometry x="1009.5" y="382" width="79" height="20" as="geometry" />
        </mxCell>
        <mxCell id="WMnvuN_LtXJiwmp-fKAC-49" style="edgeStyle=orthogonalEdgeStyle;rounded=0;orthogonalLoop=1;jettySize=auto;html=1;exitX=0;exitY=0;exitDx=10;exitDy=47;exitPerimeter=0;fontColor=#FFFFFF;" parent="1" source="WMnvuN_LtXJiwmp-fKAC-50" edge="1">
          <mxGeometry relative="1" as="geometry">
            <mxPoint x="621.4286237444198" y="392.4643990652903" as="targetPoint" />
          </mxGeometry>
        </mxCell>
        <mxCell id="WMnvuN_LtXJiwmp-fKAC-50" value="" style="shape=cube;whiteSpace=wrap;html=1;boundedLbl=1;backgroundOutline=1;darkOpacity=0.05;darkOpacity2=0.1;comic=0;fillColor=#008a00;flipH=1;opacity=50;fontColor=#ffffff;strokeColor=#FFFFFF;" parent="1" vertex="1">
          <mxGeometry x="564" y="341.75" width="58" height="48" as="geometry" />
        </mxCell>
        <mxCell id="WMnvuN_LtXJiwmp-fKAC-51" value="4x4 Stride 2&lt;br&gt;" style="text;html=1;strokeColor=none;fillColor=none;align=center;verticalAlign=middle;whiteSpace=wrap;rounded=0;comic=0;fontColor=#FFFFFF;" parent="1" vertex="1">
          <mxGeometry x="558" y="390.75" width="79" height="20" as="geometry" />
        </mxCell>
        <mxCell id="WMnvuN_LtXJiwmp-fKAC-55" value="" style="shape=cube;whiteSpace=wrap;html=1;boundedLbl=1;backgroundOutline=1;darkOpacity=0.05;darkOpacity2=0.1;comic=0;fillColor=#008a00;flipH=1;opacity=50;fontColor=#ffffff;strokeColor=#FFFFFF;" parent="1" vertex="1">
          <mxGeometry x="354" y="351.06" width="82" height="48" as="geometry" />
        </mxCell>
        <mxCell id="WMnvuN_LtXJiwmp-fKAC-56" value="4x4 Stride 2&lt;br&gt;" style="text;html=1;strokeColor=none;fillColor=none;align=center;verticalAlign=middle;whiteSpace=wrap;rounded=0;comic=0;fontColor=#FFFFFF;" parent="1" vertex="1">
          <mxGeometry x="350" y="398.06" width="79" height="20" as="geometry" />
        </mxCell>
        <mxCell id="WMnvuN_LtXJiwmp-fKAC-59" value="" style="shape=cube;whiteSpace=wrap;html=1;boundedLbl=1;backgroundOutline=1;darkOpacity=0.05;darkOpacity2=0.1;comic=0;fillColor=#008a00;flipH=1;opacity=50;fontColor=#ffffff;strokeColor=#FFFFFF;" parent="1" vertex="1">
          <mxGeometry x="160" y="335.44" width="104" height="42.13" as="geometry" />
        </mxCell>
        <mxCell id="WMnvuN_LtXJiwmp-fKAC-60" value="4x4 Stride 1" style="text;html=1;strokeColor=none;fillColor=none;align=center;verticalAlign=middle;whiteSpace=wrap;rounded=0;comic=0;fontColor=#FFFFFF;" parent="1" vertex="1">
          <mxGeometry x="168" y="394" width="79" height="20" as="geometry" />
        </mxCell>
        <mxCell id="WMnvuN_LtXJiwmp-fKAC-69" value="" style="shape=cube;whiteSpace=wrap;html=1;boundedLbl=1;backgroundOutline=1;darkOpacity=0.05;darkOpacity2=0.1;size=67;flipH=1;fillColor=#0050ef;fontColor=#ffffff;opacity=50;strokeColor=#FFFFFF;" parent="1" vertex="1">
          <mxGeometry x="610" y="262.75" width="80" height="173" as="geometry" />
        </mxCell>
        <mxCell id="WMnvuN_LtXJiwmp-fKAC-70" value="" style="shape=cube;whiteSpace=wrap;html=1;boundedLbl=1;backgroundOutline=1;darkOpacity=0.05;darkOpacity2=0.1;size=67;flipH=1;fillColor=#a20025;fontColor=#ffffff;opacity=50;strokeColor=#FFFFFF;" parent="1" vertex="1">
          <mxGeometry x="622" y="263.25" width="80" height="173" as="geometry" />
        </mxCell>
        <mxCell id="WMnvuN_LtXJiwmp-fKAC-71" value="" style="shape=cube;whiteSpace=wrap;html=1;boundedLbl=1;backgroundOutline=1;darkOpacity=0.05;darkOpacity2=0.1;size=40;flipH=1;fillColor=#0050ef;fontColor=#ffffff;opacity=50;strokeColor=#FFFFFF;" parent="1" vertex="1">
          <mxGeometry x="424" y="299.06" width="53" height="120" as="geometry" />
        </mxCell>
        <mxCell id="WMnvuN_LtXJiwmp-fKAC-73" value="" style="shape=cube;whiteSpace=wrap;html=1;boundedLbl=1;backgroundOutline=1;darkOpacity=0.05;darkOpacity2=0.1;size=14;flipH=1;fillColor=#0050ef;fontColor=#ffffff;opacity=50;strokeColor=#FFFFFF;" parent="1" vertex="1">
          <mxGeometry x="262" y="325.75" width="25" height="62.5" as="geometry" />
        </mxCell>
        <mxCell id="WMnvuN_LtXJiwmp-fKAC-86" value="" style="edgeStyle=orthogonalEdgeStyle;rounded=0;orthogonalLoop=1;jettySize=auto;html=1;fontSize=30;fontColor=#FFFFFF;startArrow=none;" parent="1" source="FqeBGX3MSKOSBj8utBiv-2" edge="1">
          <mxGeometry relative="1" as="geometry">
            <mxPoint x="86" y="357.06" as="targetPoint" />
          </mxGeometry>
        </mxCell>
        <mxCell id="WMnvuN_LtXJiwmp-fKAC-77" value="" style="shape=cube;whiteSpace=wrap;html=1;boundedLbl=1;backgroundOutline=1;darkOpacity=0.05;darkOpacity2=0.1;size=40;flipH=1;fillColor=#a20025;fontColor=#ffffff;opacity=50;strokeColor=#FFFFFF;" parent="1" vertex="1">
          <mxGeometry x="438" y="299.06" width="53" height="120" as="geometry" />
        </mxCell>
        <mxCell id="WMnvuN_LtXJiwmp-fKAC-79" value="Deconv 1" style="text;html=1;align=center;verticalAlign=middle;resizable=0;points=[];autosize=1;fontColor=#FFFFFF;fontSize=30;" parent="1" vertex="1">
          <mxGeometry x="100" y="419.56" width="136" height="40" as="geometry" />
        </mxCell>
        <mxCell id="WMnvuN_LtXJiwmp-fKAC-80" value="Deconv 2" style="text;html=1;align=center;verticalAlign=middle;resizable=0;points=[];autosize=1;fontColor=#FFFFFF;fontSize=30;" parent="1" vertex="1">
          <mxGeometry x="276" y="440.06" width="136" height="40" as="geometry" />
        </mxCell>
        <mxCell id="WMnvuN_LtXJiwmp-fKAC-81" value="Deconv 3" style="text;html=1;align=center;verticalAlign=middle;resizable=0;points=[];autosize=1;fontColor=#FFFFFF;fontSize=30;" parent="1" vertex="1">
          <mxGeometry x="465" y="466" width="136" height="40" as="geometry" />
        </mxCell>
        <mxCell id="WMnvuN_LtXJiwmp-fKAC-82" value="Deconv 4" style="text;html=1;align=center;verticalAlign=middle;resizable=0;points=[];autosize=1;fontColor=#FFFFFF;fontSize=30;" parent="1" vertex="1">
          <mxGeometry x="676" y="485" width="136" height="40" as="geometry" />
        </mxCell>
        <mxCell id="WMnvuN_LtXJiwmp-fKAC-83" value="Deconv 5" style="text;html=1;align=center;verticalAlign=middle;resizable=0;points=[];autosize=1;fontColor=#FFFFFF;fontSize=30;" parent="1" vertex="1">
          <mxGeometry x="867" y="508" width="136" height="40" as="geometry" />
        </mxCell>
        <mxCell id="WMnvuN_LtXJiwmp-fKAC-84" value="&lt;font style=&quot;font-size: 60px&quot;&gt;G&lt;/font&gt;" style="text;html=1;align=center;verticalAlign=middle;resizable=0;points=[];autosize=1;fontSize=30;fontColor=#FFFFFF;" parent="1" vertex="1">
          <mxGeometry x="53" y="58" width="56" height="50" as="geometry" />
        </mxCell>
        <mxCell id="WMnvuN_LtXJiwmp-fKAC-85" value="G(z)" style="text;html=1;align=center;verticalAlign=middle;resizable=0;points=[];autosize=1;fontColor=#FFFFFF;fontSize=30;" parent="1" vertex="1">
          <mxGeometry x="983" y="181.06" width="68" height="40" as="geometry" />
        </mxCell>
        <mxCell id="WMnvuN_LtXJiwmp-fKAC-87" value="" style="shape=cube;whiteSpace=wrap;html=1;boundedLbl=1;backgroundOutline=1;darkOpacity=0.05;darkOpacity2=0.1;size=36;flipH=1;fillColor=#a20025;opacity=50;fontColor=#ffffff;strokeColor=#FFFFFF;" parent="1" vertex="1">
          <mxGeometry x="265" y="636" width="57" height="98" as="geometry" />
        </mxCell>
        <mxCell id="WMnvuN_LtXJiwmp-fKAC-90" value="&lt;span style=&quot;font-family: &amp;#34;source code pro&amp;#34; , &amp;#34;dejavu sans mono&amp;#34; , &amp;#34;ubuntu mono&amp;#34; , &amp;#34;anonymous pro&amp;#34; , &amp;#34;droid sans mono&amp;#34; , &amp;#34;menlo&amp;#34; , &amp;#34;monaco&amp;#34; , &amp;#34;consolas&amp;#34; , &amp;#34;inconsolata&amp;#34; , &amp;#34;courier&amp;#34; , monospace , &amp;#34;pingfang sc&amp;#34; , &amp;#34;microsoft yahei&amp;#34; , sans-serif ; font-size: 24px ; background-color: rgb(0 , 0 , 0)&quot;&gt;ReLU&lt;/span&gt;" style="text;html=1;align=center;verticalAlign=middle;resizable=0;points=[];autosize=1;fontSize=30;fontColor=#FFFFFF;shadow=0;" parent="1" vertex="1">
          <mxGeometry x="341" y="675" width="68" height="42" as="geometry" />
        </mxCell>
        <mxCell id="WMnvuN_LtXJiwmp-fKAC-91" value="" style="shape=cube;whiteSpace=wrap;html=1;boundedLbl=1;backgroundOutline=1;darkOpacity=0.05;darkOpacity2=0.1;size=36;flipH=1;fillColor=#0050ef;opacity=50;fontColor=#ffffff;strokeColor=#FFFFFF;" parent="1" vertex="1">
          <mxGeometry x="452" y="636" width="57" height="98" as="geometry" />
        </mxCell>
        <mxCell id="WMnvuN_LtXJiwmp-fKAC-92" value="&lt;span style=&quot;color: rgb(248 , 248 , 242) ; font-family: &amp;#34;source code pro&amp;#34; , &amp;#34;dejavu sans mono&amp;#34; , &amp;#34;ubuntu mono&amp;#34; , &amp;#34;anonymous pro&amp;#34; , &amp;#34;droid sans mono&amp;#34; , &amp;#34;menlo&amp;#34; , &amp;#34;monaco&amp;#34; , &amp;#34;consolas&amp;#34; , &amp;#34;inconsolata&amp;#34; , &amp;#34;courier&amp;#34; , monospace , &amp;#34;pingfang sc&amp;#34; , &amp;#34;microsoft yahei&amp;#34; , sans-serif ; background-color: rgb(0 , 0 , 0)&quot;&gt;&lt;font style=&quot;font-size: 24px&quot;&gt;BatchNorm2d&lt;/font&gt;&lt;/span&gt;" style="text;html=1;align=center;verticalAlign=middle;resizable=0;points=[];autosize=1;fontSize=30;fontColor=#FFFFFF;fillColor=#000000;" parent="1" vertex="1">
          <mxGeometry x="531" y="675" width="169" height="42" as="geometry" />
        </mxCell>
        <mxCell id="WMnvuN_LtXJiwmp-fKAC-93" value="" style="shape=cube;whiteSpace=wrap;html=1;boundedLbl=1;backgroundOutline=1;darkOpacity=0.05;darkOpacity2=0.1;size=36;flipH=1;fillColor=#e3c800;opacity=50;fontColor=#ffffff;strokeColor=#FFFFFF;" parent="1" vertex="1">
          <mxGeometry x="715" y="636" width="57" height="98" as="geometry" />
        </mxCell>
        <mxCell id="WMnvuN_LtXJiwmp-fKAC-94" value="&lt;span style=&quot;color: rgb(248 , 248 , 242) ; font-family: &amp;#34;source code pro&amp;#34; , &amp;#34;dejavu sans mono&amp;#34; , &amp;#34;ubuntu mono&amp;#34; , &amp;#34;anonymous pro&amp;#34; , &amp;#34;droid sans mono&amp;#34; , &amp;#34;menlo&amp;#34; , &amp;#34;monaco&amp;#34; , &amp;#34;consolas&amp;#34; , &amp;#34;inconsolata&amp;#34; , &amp;#34;courier&amp;#34; , monospace , &amp;#34;pingfang sc&amp;#34; , &amp;#34;microsoft yahei&amp;#34; , sans-serif&quot;&gt;&lt;font style=&quot;font-size: 24px&quot;&gt;&lt;span style=&quot;background-color: rgb(0 , 0 , 0)&quot;&gt;Tanh&lt;/span&gt;&lt;br&gt;&lt;/font&gt;&lt;/span&gt;" style="text;html=1;align=center;verticalAlign=middle;resizable=0;points=[];autosize=1;fontSize=30;fontColor=#FFFFFF;" parent="1" vertex="1">
          <mxGeometry x="794" y="675" width="68" height="42" as="geometry" />
        </mxCell>
        <mxCell id="WMnvuN_LtXJiwmp-fKAC-75" value="" style="rounded=0;whiteSpace=wrap;html=1;comic=0;fillColor=none;fontColor=#FFFFFF;strokeColor=#FFFFFF;" parent="1" vertex="1">
          <mxGeometry x="55" y="311" width="30" height="103.94" as="geometry" />
        </mxCell>
        <mxCell id="FqeBGX3MSKOSBj8utBiv-2" value="z" style="text;html=1;align=center;verticalAlign=middle;resizable=0;points=[];autosize=1;fontColor=#FFFFFF;fontSize=30;" vertex="1" parent="1">
          <mxGeometry x="58" y="267.06" width="25" height="40" as="geometry" />
        </mxCell>
        <mxCell id="FqeBGX3MSKOSBj8utBiv-8" value="" style="shape=cube;whiteSpace=wrap;html=1;boundedLbl=1;backgroundOutline=1;darkOpacity=0.05;darkOpacity2=0.1;size=106;flipH=1;fillColor=#e3c800;fontColor=#000000;opacity=50;strokeColor=#FFFFFF;" vertex="1" parent="1">
          <mxGeometry x="1004" y="173" width="120" height="320" as="geometry" />
        </mxCell>
        <mxCell id="FqeBGX3MSKOSBj8utBiv-9" value="&lt;span style=&quot;color: rgb(255 , 255 , 255) ; font-size: 24px&quot;&gt;1&lt;/span&gt;" style="text;html=1;align=center;verticalAlign=middle;resizable=0;points=[];autosize=1;" vertex="1" parent="1">
          <mxGeometry x="57" y="423" width="24" height="22" as="geometry" />
        </mxCell>
        <mxCell id="WMnvuN_LtXJiwmp-fKAC-78" value="" style="shape=cube;whiteSpace=wrap;html=1;boundedLbl=1;backgroundOutline=1;darkOpacity=0.05;darkOpacity2=0.1;size=14;flipH=1;fillColor=#a20025;fontColor=#ffffff;opacity=50;strokeColor=#FFFFFF;" parent="1" vertex="1">
          <mxGeometry x="272" y="326" width="25" height="62.5" as="geometry" />
        </mxCell>
      </root>
    </mxGraphModel>
  </diagram>
</mxfile>
